<?xml version="1.0" encoding="UTF-8"?>
<svg width="88px" height="82px" viewBox="0 0 88 82" version="1.1" xmlns="http://www.w3.org/2000/svg" xmlns:xlink="http://www.w3.org/1999/xlink">
    <title>chat (1)</title>
    <defs>
        <linearGradient x1="0%" y1="75.2839506%" x2="100%" y2="24.7160494%" id="linearGradient-1">
            <stop stop-color="#E3DDFE" offset="0%"></stop>
            <stop stop-color="#FBCEF8" offset="100%"></stop>
        </linearGradient>
    </defs>
    <g id="Page-1" stroke="none" stroke-width="1" fill="none" fill-rule="evenodd">
        <g id="Artboard" transform="translate(-249.000000, -145.000000)">
            <g id="chat-(1)" transform="translate(249.000000, 145.000000)" fill-rule="nonzero">
                <path d="M35.502483,0 C15.9296983,0 0.00496606621,13.6806354 0.00496606621,30.5 C0.0758148548,37.5376634 2.79118373,44.2820965 7.59597354,49.3545418 L0.802294909,56.2641777 C0.0192915479,57.0572563 -0.215283143,58.2516099 0.208206774,59.2890193 C0.63169669,60.3264287 1.62961161,61.0020048 2.73554429,61 L35.502483,61 C55.0752678,61 71,47.3193602 71,30.5 C71,13.6806354 55.0752678,0 35.502483,0 Z" id="Path" fill="#FB5EED"></path>
                <path d="M80.2997205,70.4466998 C85.1690552,65.4197271 87.9214678,58.7375764 87.9949657,51.7646214 C87.8279097,43.2168106 83.7536938,35.2081941 76.9226704,30 C76.7731944,49.5667298 58.2160274,65.5014438 35.4015628,65.5014438 L20,65.5014438 C27.0899109,76.1095484 39.1891662,82.3402997 52.0100059,81.9856306 L85.2268919,81.9856306 C86.348011,81.9876215 87.359629,81.318225 87.7889342,80.290305 C88.2182394,79.2623849 87.9804435,78.0789563 87.1866882,77.2931321 L80.2997205,70.4466998 Z" id="Path" fill="#755DFE"></path>
                <g id="Group" transform="translate(17.000000, 21.000000)" fill="#FAFAFA">
                    <path d="M35.2857143,0 L2.71428571,0 C1.21522711,0 0,1.26852654 0,2.83333333 C0,4.39814012 1.21522711,5.66666667 2.71428571,5.66666667 L35.2857143,5.66666667 C36.7847729,5.66666667 38,4.39814012 38,2.83333333 C38,1.26852654 36.7847729,0 35.2857143,0 Z" id="Path"></path>
                    <path d="M24.4285714,11.3333333 L2.71428571,11.3333333 C1.21522711,11.3333333 0,12.6018599 0,14.1666667 C0,15.7314735 1.21522711,17 2.71428571,17 L24.4285714,17 C25.92763,17 27.1428571,15.7314735 27.1428571,14.1666667 C27.1428571,12.6018599 25.92763,11.3333333 24.4285714,11.3333333 Z" id="Path"></path>
                </g>
            </g>
        </g>
    </g>
</svg>