<?xml version="1.0" encoding="UTF-8"?>
<svg width="354px" height="354px" viewBox="0 0 354 354" version="1.1" xmlns="http://www.w3.org/2000/svg" xmlns:xlink="http://www.w3.org/1999/xlink">
    <title>Group</title>
    <defs>
        <linearGradient x1="0%" y1="75.2839506%" x2="100%" y2="24.7160494%" id="linearGradient-1">
            <stop stop-color="#E3DDFE" offset="0%"></stop>
            <stop stop-color="#FBCEF8" offset="100%"></stop>
        </linearGradient>
        <linearGradient x1="100%" y1="0%" x2="0%" y2="100%" id="linearGradient-2">
            <stop stop-color="#EEEEEE" offset="0%"></stop>
            <stop stop-color="#FB5EED" offset="0.675642061%"></stop>
            <stop stop-color="#755DFE" offset="100%"></stop>
        </linearGradient>
    </defs>
    <g id="Page-1" stroke="none" stroke-width="1" fill="none" fill-rule="evenodd">
        <g id="Artboard" transform="translate(-882.000000, -334.000000)">
            <rect id="Rectangle" fill="url(#linearGradient-1)" x="0" y="0" width="1440" height="1024"></rect>
            <rect id="Rectangle" fill="#FFFFFF" x="117" y="87" width="1206" height="851" rx="68"></rect>
            <g id="Group" transform="translate(882.000000, 334.000000)">
                <rect id="Rectangle" fill="url(#linearGradient-2)" x="0" y="0" width="354" height="354" rx="79"></rect>
                <g id="heart" transform="translate(51.000000, 65.000000)" fill="#FFFFFF" fill-rule="nonzero">
                    <path d="M245.245931,43.902439 C233.525099,17.2682927 208.032289,0 181.074376,0 C153.823442,0 136.242194,12 125.986466,24.8780488 C115.730738,12 98.1494899,0 70.8985557,0 C43.9406422,0 18.4478327,17.2682927 6.72700074,43.902439 C-5.87289361,71.7073171 -0.598519233,102.439024 21.0850199,126.439024 C72.3636597,184.097561 117.781883,224.780488 118.367925,225.073171 C120.712091,227.121951 123.349279,228 126.279487,228 C129.209695,228 131.846882,227.121951 134.191048,225.073171 C134.77709,224.780488 179.902293,183.804878 231.473953,126.439024 C252.571451,102.439024 257.845825,71.7073171 245.245931,43.902439 Z M213.599685,110.926829 C175.506981,153.365854 140.930527,186.731707 125.986466,200.780488 C111.042405,186.731707 76.4659508,153.658537 38.373247,110.926829 C23.1361655,93.6585366 19.3268951,72.8780488 27.8244982,53.2682927 C36.0290806,35.4146341 53.3173077,23.4146341 70.8985557,23.4146341 C105.768031,23.4146341 113.679592,49.4634146 114.558655,52.6829268 C115.730738,57.9512195 120.419071,61.4634146 125.693445,61.4634146 C125.693445,61.4634146 125.693445,61.4634146 125.693445,61.4634146 C130.967819,61.4634146 135.656152,57.6585366 137.121256,52.6829268 C138.000319,49.7560976 145.91188,23.4146341 180.781355,23.4146341 C198.362603,23.4146341 215.65083,35.4146341 223.855413,53.5609756 C232.646037,72.8780488 228.836766,93.6585366 213.599685,110.926829 Z M210.669477,76.9756098 C210.962497,82.5365854 206.860206,87.5121951 200.99979,87.804878 C200.70677,87.804878 200.413749,87.804878 200.413749,87.804878 C195.139374,87.804878 190.451042,83.7073171 190.158021,78.1463415 C188.985938,61.4634146 178.144168,58.8292683 176.093022,58.5365854 C170.525627,57.6585366 166.716357,52.6829268 167.302398,47.1219512 C168.181461,41.5609756 173.455835,37.7560976 179.02323,38.3414634 C189.278958,39.804878 208.911352,49.7560976 210.669477,76.9756098 Z" id="XMLID_1401_"></path>
                </g>
            </g>
        </g>
    </g>
</svg>